# xmcd
#
# Track frame offsets:
#       182
#       12595
#       28065
#       41312
#       49435
#       61582
#       74170
#       86992
#       101492
#       109392
#       119885
#       129945
#
# Disc length: 1923 seconds
#
# Revision: 1
# Processed by: cddbd v1.4PL0 Copyright (c) Steve Scherf et al.
# Submitted via: MusiCat 1.1
#
DISCID=b207810c
DTITLE=The Dominos - Minor Things
DYEAR=1992
DGENRE=
TTITLE0=It don't mean a thing
TTITLE1=I can't be satisfied
TTITLE2=Flying to the station gate
TTITLE3=Minor Swing
TTITLE4=The mess around
TTITLE5=The train with the rumba beat
TTITLE6=Cuckoo Girl
TTITLE7=Trapped in a web of love
TTITLE8=Cannonball rag
TTITLE9=It's a sin to tell a lie
TTITLE10=Why don't you? 
TTITLE11=Je suis swing
EXTD=1992\n\n\nsubmitted by Stamppot
EXTT0=
EXTT1=
EXTT2=
EXTT3=
EXTT4=
EXTT5=
EXTT6=
EXTT7=
EXTT8=
EXTT9=
EXTT10=
EXTT11=
PLAYORDER=
